<svg xmlns="http://www.w3.org/2000/svg" viewBox="0 0 371.03 128.45">
    <defs>
        <style>.cls-1{fill:#bfacac;stroke:#000;stroke-miterlimit:10;stroke-width:0.25px;}</style>
    </defs>
    <g id="Calque_2" data-name="Calque 2">
        <g id="Calque_2-2" data-name="Calque 2">
            <rect class="cls-1" x="110.08" y="73.05" width="18.07" height="55.28"/>
            <rect class="cls-1" x="129.55" y="73.05" width="31.71" height="55.28"/>
            <rect class="cls-1" x="162.89" y="73.05" width="33.62" height="55.28"/>
            <rect class="cls-1" x="198.03" y="73.05" width="47.71" height="55.28"/>
            <rect class="cls-1" x="247.3" y="73.05" width="26.88" height="55.28"/>
            <polygon class="cls-1" points="315 128.32 275.67 128.32 275.67 73.05 296.58 73.05 315 97.78 315 128.32"/>
            <polygon class="cls-1"
                     points="108.79 128.32 85.86 128.32 85.86 91.54 103.13 73.05 108.79 73.05 108.79 128.32"/>
            <polygon class="cls-1" points="84.25 128.32 66.07 128.32 66.07 112.94 84.25 93.6 84.25 128.32"/>
            <polygon class="cls-1" points="97.77 76.31 85.45 89.53 38.1 45.38 57.21 38.49 97.77 76.31"/>
            <polygon class="cls-1"
                     points="84.25 90.81 36.7 46.48 29.35 54.36 29.35 54.36 15.68 69.02 40.71 92.36 49.41 83.03 71.92 104.03 84.25 90.81"/>
            <polygon class="cls-1"
                     points="57.71 92.84 49.37 85.06 40.57 94.51 14.58 70.27 0.18 85.72 26.77 110.52 41.22 110.52 45.39 106.06 45.39 106.06 57.71 92.84"/>
            <polygon class="cls-1"
                     points="71.23 105.34 58.96 93.91 41.95 112.14 28.04 112.14 43.39 127.78 64.52 127.78 64.52 112.54 71.23 105.34"/>
            <rect class="cls-1" x="71.4" y="27.51" width="10.35" height="39.4"
                  transform="translate(-10.17 71.02) rotate(-47)"/>
            <rect class="cls-1" x="98.34" y="0.31" width="13.51" height="56.43"/>
            <rect class="cls-1" x="113.67" y="0.31" width="16.53" height="56.43"/>
            <rect class="cls-1" x="131.93" y="0.31" width="27.54" height="56.43"/>
            <polygon class="cls-1" points="96.49 56.56 66.77 28.84 78.73 16.01 96.56 32.63 96.49 56.56"/>
            <polygon class="cls-1" points="96.58 30.44 79.83 14.83 93.74 0.31 96.56 0.31 96.58 30.44"/>
            <polygon class="cls-1"
                     points="176.19 56.75 161.31 56.75 161.31 0.31 168.44 0.31 176.19 12.38 176.19 56.75"/>
            <rect class="cls-1" x="177.96" y="12.59" width="15.18" height="44.16"/>
            <rect class="cls-1" x="194.9" y="12.59" width="14.82" height="44.16"/>
            <polygon class="cls-1"
                     points="225.47 56.75 211.48 56.75 211.48 12.37 219.19 0.13 225.47 0.13 225.47 56.75"/>
            <rect class="cls-1" x="227.04" y="0.13" width="14" height="56.43"/>
            <rect class="cls-1" x="242.8" y="0.13" width="14.53" height="56.43"/>
            <rect class="cls-1" x="258.86" y="0.13" width="11.92" height="49.94"/>
            <polygon class="cls-1"
                     points="305.8 12.29 293.69 0.13 272.38 0.13 272.38 50.06 293.69 50.06 293.69 24.4 305.8 12.29"/>
            <polygon class="cls-1" points="295.5 47.85 295.5 24.88 306.91 13.47 318.4 24.95 295.5 47.85"/>
            <polygon class="cls-1"
                     points="301.63 57.76 295.5 51.63 295.5 50.07 319.51 26.05 326.43 32.97 301.63 57.76"/>
            <polygon class="cls-1"
                     points="352.32 82.71 370.85 64.17 344.82 38.15 344.82 38.15 334.26 27.59 302.74 59.11 313.3 69.67 318.43 64.54 334.15 64.54 352.32 82.71"/>
            <polygon class="cls-1"
                     points="336.15 69.63 332.67 66.15 327.08 66.15 327.08 92.3 340.75 92.3 349.78 83.26 336.15 69.63"/>
            <polygon class="cls-1"
                     points="319.44 66.15 304.34 80.73 312.92 92.28 312.92 92.3 325.46 92.3 325.46 66.15 319.44 66.15"/>
        </g>
    </g>
</svg>
